<mxfile host="app.diagrams.net" agent="Mozilla/5.0 (Macintosh; Intel Mac OS X 10_15_7) AppleWebKit/537.36 (KHTML, like Gecko) Chrome/134.0.0.0 Safari/537.36 Edg/134.0.0.0" version="26.1.1" pages="2">
  <diagram name="С4" id="g2lAVG7Sb6S4L-v2ZNlV">
    <mxGraphModel dx="5575" dy="3680" grid="0" gridSize="10" guides="1" tooltips="1" connect="1" arrows="1" fold="1" page="0" pageScale="1" pageWidth="827" pageHeight="1169" math="0" shadow="0">
      <root>
        <mxCell id="0" />
        <mxCell id="1" parent="0" />
        <object placeholders="1" c4Name="Сервис уведомлений" c4Type="Component" c4Technology="Spring Application" c4Description="Выполняет сбор и анализ данных о производительности клиент-серверных веб-приложений. Содержит основную бизнес-логику" label="&lt;font style=&quot;font-size: 16px&quot;&gt;&lt;b&gt;%c4Name%&lt;/b&gt;&lt;/font&gt;&lt;div&gt;[%c4Type%: %c4Technology%]&lt;/div&gt;&lt;br&gt;&lt;div&gt;&lt;font style=&quot;font-size: 11px&quot;&gt;%c4Description%&lt;/font&gt;&lt;/div&gt;" id="hf4aPMj9JDdMH56rY4fk-107">
          <mxCell style="rounded=1;whiteSpace=wrap;html=1;labelBackgroundColor=none;fillColor=#63BEF2;fontColor=#ffffff;align=center;arcSize=6;strokeColor=#2086C9;metaEdit=1;resizable=0;points=[[0.25,0,0],[0.5,0,0],[0.75,0,0],[1,0.25,0],[1,0.5,0],[1,0.75,0],[0.75,1,0],[0.5,1,0],[0.25,1,0],[0,0.75,0],[0,0.5,0],[0,0.25,0]];" parent="1" vertex="1">
            <mxGeometry x="2028" y="3040" width="240" height="120" as="geometry" />
          </mxCell>
        </object>
        <object placeholders="1" c4Name="Менеджер проектов" c4Type="Person" c4Description="Может видеть информацию о производительности стороннего веб-приложения" label="&lt;font style=&quot;font-size: 16px&quot;&gt;&lt;b&gt;%c4Name%&lt;/b&gt;&lt;/font&gt;&lt;div&gt;[%c4Type%]&lt;/div&gt;&lt;br&gt;&lt;div&gt;&lt;font style=&quot;font-size: 11px&quot;&gt;&lt;font color=&quot;#cccccc&quot;&gt;%c4Description%&lt;/font&gt;&lt;/div&gt;" id="hf4aPMj9JDdMH56rY4fk-1">
          <mxCell style="html=1;fontSize=11;dashed=0;whiteSpace=wrap;fillColor=#083F75;strokeColor=#06315C;fontColor=#ffffff;shape=mxgraph.c4.person2;align=center;metaEdit=1;points=[[0.5,0,0],[1,0.5,0],[1,0.75,0],[0.75,1,0],[0.5,1,0],[0.25,1,0],[0,0.75,0],[0,0.5,0]];resizable=0;" parent="1" vertex="1">
            <mxGeometry x="50" y="60" width="200" height="180" as="geometry" />
          </mxCell>
        </object>
        <object placeholders="1" c4Name="Разработчик" c4Type="Person" c4Description="Интегрирует систему в сторонние веб-приложениия" label="&lt;font style=&quot;font-size: 16px&quot;&gt;&lt;b&gt;%c4Name%&lt;/b&gt;&lt;/font&gt;&lt;div&gt;[%c4Type%]&lt;/div&gt;&lt;br&gt;&lt;div&gt;&lt;font style=&quot;font-size: 11px&quot;&gt;&lt;font color=&quot;#cccccc&quot;&gt;%c4Description%&lt;/font&gt;&lt;/div&gt;" id="hf4aPMj9JDdMH56rY4fk-2">
          <mxCell style="html=1;fontSize=11;dashed=0;whiteSpace=wrap;fillColor=#083F75;strokeColor=#06315C;fontColor=#ffffff;shape=mxgraph.c4.person2;align=center;metaEdit=1;points=[[0.5,0,0],[1,0.5,0],[1,0.75,0],[0.75,1,0],[0.5,1,0],[0.25,1,0],[0,0.75,0],[0,0.5,0]];resizable=0;" parent="1" vertex="1">
            <mxGeometry x="45" y="290" width="200" height="180" as="geometry" />
          </mxCell>
        </object>
        <object placeholders="1" c4Name="Система для измерения и сбора данных производительности клиент-серверных веб-приложений" c4Type="Software System" c4Description="Выполняет сбор и анализ данных о производительности клиент-серверных веб-приложений" label="&lt;font style=&quot;font-size: 12px&quot;&gt;&lt;b&gt;%c4Name%&lt;/b&gt;&lt;/font&gt;&lt;div&gt;[%c4Type%]&lt;/div&gt;&lt;br&gt;&lt;div&gt;&lt;font style=&quot;font-size: 11px&quot;&gt;&lt;font color=&quot;#cccccc&quot;&gt;%c4Description%&lt;/font&gt;&lt;/div&gt;" id="hf4aPMj9JDdMH56rY4fk-4">
          <mxCell style="rounded=1;whiteSpace=wrap;html=1;labelBackgroundColor=none;fillColor=#1061B0;fontColor=#ffffff;align=center;arcSize=10;strokeColor=#0D5091;metaEdit=1;resizable=0;points=[[0.25,0,0],[0.5,0,0],[0.75,0,0],[1,0.25,0],[1,0.5,0],[1,0.75,0],[0.75,1,0],[0.5,1,0],[0.25,1,0],[0,0.75,0],[0,0.5,0],[0,0.25,0]];" parent="1" vertex="1">
            <mxGeometry x="520" y="340" width="240" height="120" as="geometry" />
          </mxCell>
        </object>
        <mxCell id="hf4aPMj9JDdMH56rY4fk-7" style="edgeStyle=orthogonalEdgeStyle;rounded=0;orthogonalLoop=1;jettySize=auto;html=1;entryX=0;entryY=0.5;entryDx=0;entryDy=0;entryPerimeter=0;curved=1;strokeColor=default;strokeWidth=2;dashed=1;" parent="1" source="hf4aPMj9JDdMH56rY4fk-1" target="hf4aPMj9JDdMH56rY4fk-4" edge="1">
          <mxGeometry relative="1" as="geometry" />
        </mxCell>
        <mxCell id="hf4aPMj9JDdMH56rY4fk-11" value="Просматривает информацию о проекте" style="edgeLabel;html=1;align=center;verticalAlign=middle;resizable=0;points=[];" parent="hf4aPMj9JDdMH56rY4fk-7" vertex="1" connectable="0">
          <mxGeometry x="-0.136" y="-2" relative="1" as="geometry">
            <mxPoint as="offset" />
          </mxGeometry>
        </mxCell>
        <mxCell id="hf4aPMj9JDdMH56rY4fk-10" style="edgeStyle=orthogonalEdgeStyle;rounded=0;orthogonalLoop=1;jettySize=auto;html=1;entryX=0;entryY=0.5;entryDx=0;entryDy=0;entryPerimeter=0;curved=1;strokeColor=default;strokeWidth=2;dashed=1;" parent="1" target="hf4aPMj9JDdMH56rY4fk-4" edge="1">
          <mxGeometry relative="1" as="geometry">
            <mxPoint x="250" y="410" as="sourcePoint" />
            <mxPoint x="360" y="550" as="targetPoint" />
          </mxGeometry>
        </mxCell>
        <mxCell id="hf4aPMj9JDdMH56rY4fk-12" value="Отвечает за интеграцию со сторонним&lt;div&gt;веб-приложением&lt;/div&gt;" style="edgeLabel;html=1;align=center;verticalAlign=middle;resizable=0;points=[];" parent="hf4aPMj9JDdMH56rY4fk-10" vertex="1" connectable="0">
          <mxGeometry x="-0.2972" y="9" relative="1" as="geometry">
            <mxPoint x="1" as="offset" />
          </mxGeometry>
        </mxCell>
        <object placeholders="1" c4Name="Инженер-тестировщик" c4Type="Person" c4Description="Использует систему для выполнения тестов стороннего веб-приложения" label="&lt;font style=&quot;font-size: 16px&quot;&gt;&lt;b&gt;%c4Name%&lt;/b&gt;&lt;/font&gt;&lt;div&gt;[%c4Type%]&lt;/div&gt;&lt;br&gt;&lt;div&gt;&lt;font style=&quot;font-size: 11px&quot;&gt;&lt;font color=&quot;#cccccc&quot;&gt;%c4Description%&lt;/font&gt;&lt;/div&gt;" id="hf4aPMj9JDdMH56rY4fk-13">
          <mxCell style="html=1;fontSize=11;dashed=0;whiteSpace=wrap;fillColor=#083F75;strokeColor=#06315C;fontColor=#ffffff;shape=mxgraph.c4.person2;align=center;metaEdit=1;points=[[0.5,0,0],[1,0.5,0],[1,0.75,0],[0.75,1,0],[0.5,1,0],[0.25,1,0],[0,0.75,0],[0,0.5,0]];resizable=0;" parent="1" vertex="1">
            <mxGeometry x="50" y="510" width="200" height="180" as="geometry" />
          </mxCell>
        </object>
        <mxCell id="hf4aPMj9JDdMH56rY4fk-14" style="edgeStyle=orthogonalEdgeStyle;rounded=0;orthogonalLoop=1;jettySize=auto;html=1;entryX=0;entryY=0.5;entryDx=0;entryDy=0;entryPerimeter=0;curved=1;strokeColor=default;strokeWidth=2;dashed=1;" parent="1" target="hf4aPMj9JDdMH56rY4fk-4" edge="1">
          <mxGeometry relative="1" as="geometry">
            <mxPoint x="249.5" y="630" as="sourcePoint" />
            <mxPoint x="359.5" y="510" as="targetPoint" />
          </mxGeometry>
        </mxCell>
        <mxCell id="hf4aPMj9JDdMH56rY4fk-15" value="Просматривает информацию о проекте.&amp;nbsp;&lt;div&gt;Делает заключение о состоянии проекта&lt;/div&gt;" style="edgeLabel;html=1;align=center;verticalAlign=middle;resizable=0;points=[];" parent="hf4aPMj9JDdMH56rY4fk-14" vertex="1" connectable="0">
          <mxGeometry x="-0.2972" y="9" relative="1" as="geometry">
            <mxPoint x="1" as="offset" />
          </mxGeometry>
        </mxCell>
        <object placeholders="1" c4Name="Менеджер проектов" c4Type="Person" c4Description="Может видеть информацию о производительности стороннего веб-приложения" label="&lt;font style=&quot;font-size: 16px&quot;&gt;&lt;b&gt;%c4Name%&lt;/b&gt;&lt;/font&gt;&lt;div&gt;[%c4Type%]&lt;/div&gt;&lt;br&gt;&lt;div&gt;&lt;font style=&quot;font-size: 11px&quot;&gt;&lt;font color=&quot;#cccccc&quot;&gt;%c4Description%&lt;/font&gt;&lt;/div&gt;" id="hf4aPMj9JDdMH56rY4fk-19">
          <mxCell style="html=1;fontSize=11;dashed=0;whiteSpace=wrap;fillColor=#083F75;strokeColor=#06315C;fontColor=#ffffff;shape=mxgraph.c4.person2;align=center;metaEdit=1;points=[[0.5,0,0],[1,0.5,0],[1,0.75,0],[0.75,1,0],[0.5,1,0],[0.25,1,0],[0,0.75,0],[0,0.5,0]];resizable=0;" parent="1" vertex="1">
            <mxGeometry x="540" y="1333" width="200" height="180" as="geometry" />
          </mxCell>
        </object>
        <object placeholders="1" c4Name="Разработчик" c4Type="Person" c4Description="Интегрирует систему в сторонние веб-приложениия" label="&lt;font style=&quot;font-size: 16px&quot;&gt;&lt;b&gt;%c4Name%&lt;/b&gt;&lt;/font&gt;&lt;div&gt;[%c4Type%]&lt;/div&gt;&lt;br&gt;&lt;div&gt;&lt;font style=&quot;font-size: 11px&quot;&gt;&lt;font color=&quot;#cccccc&quot;&gt;%c4Description%&lt;/font&gt;&lt;/div&gt;" id="hf4aPMj9JDdMH56rY4fk-20">
          <mxCell style="html=1;fontSize=11;dashed=0;whiteSpace=wrap;fillColor=#083F75;strokeColor=#06315C;fontColor=#ffffff;shape=mxgraph.c4.person2;align=center;metaEdit=1;points=[[0.5,0,0],[1,0.5,0],[1,0.75,0],[0.75,1,0],[0.5,1,0],[0.25,1,0],[0,0.75,0],[0,0.5,0]];resizable=0;" parent="1" vertex="1">
            <mxGeometry x="540" y="1946" width="200" height="180" as="geometry" />
          </mxCell>
        </object>
        <object placeholders="1" c4Name="Клиент" c4Type="Container: Web Application" c4Description="Пользовтаельский интерфейс системы  " label="&lt;font style=&quot;font-size: 16px&quot;&gt;&lt;b&gt;%c4Name%&lt;/b&gt;&lt;/font&gt;&lt;div&gt;[%c4Type%]&lt;/div&gt;&lt;br&gt;&lt;div&gt;&lt;font style=&quot;font-size: 11px&quot;&gt;&lt;font color=&quot;#cccccc&quot;&gt;%c4Description%&lt;/font&gt;&lt;/div&gt;" id="hf4aPMj9JDdMH56rY4fk-21">
          <mxCell style="rounded=1;whiteSpace=wrap;html=1;labelBackgroundColor=none;fillColor=#1061B0;fontColor=#ffffff;align=center;arcSize=10;strokeColor=#0D5091;metaEdit=1;resizable=0;points=[[0.25,0,0],[0.5,0,0],[0.75,0,0],[1,0.25,0],[1,0.5,0],[1,0.75,0],[0.75,1,0],[0.5,1,0],[0.25,1,0],[0,0.75,0],[0,0.5,0],[0,0.25,0]];" parent="1" vertex="1">
            <mxGeometry x="1048" y="1572" width="240" height="120" as="geometry" />
          </mxCell>
        </object>
        <object placeholders="1" c4Name="Инженер-тестировщик" c4Type="Person" c4Description="Использует систему для выполнения тестов стороннего веб-приложения" label="&lt;font style=&quot;font-size: 16px&quot;&gt;&lt;b&gt;%c4Name%&lt;/b&gt;&lt;/font&gt;&lt;div&gt;[%c4Type%]&lt;/div&gt;&lt;br&gt;&lt;div&gt;&lt;font style=&quot;font-size: 11px&quot;&gt;&lt;font color=&quot;#cccccc&quot;&gt;%c4Description%&lt;/font&gt;&lt;/div&gt;" id="hf4aPMj9JDdMH56rY4fk-26">
          <mxCell style="html=1;fontSize=11;dashed=0;whiteSpace=wrap;fillColor=#083F75;strokeColor=#06315C;fontColor=#ffffff;shape=mxgraph.c4.person2;align=center;metaEdit=1;points=[[0.5,0,0],[1,0.5,0],[1,0.75,0],[0.75,1,0],[0.5,1,0],[0.25,1,0],[0,0.75,0],[0,0.5,0]];resizable=0;" parent="1" vertex="1">
            <mxGeometry x="540" y="1618" width="200" height="180" as="geometry" />
          </mxCell>
        </object>
        <object placeholders="1" c4Name="Библиотека" c4Type="Container" c4Description="Собирает данные о стороннем веб-приложении" label="&lt;font style=&quot;font-size: 16px&quot;&gt;&lt;b&gt;%c4Name%&lt;/b&gt;&lt;/font&gt;&lt;div&gt;[%c4Type%]&lt;/div&gt;&lt;br&gt;&lt;div&gt;&lt;font style=&quot;font-size: 11px&quot;&gt;&lt;font color=&quot;#cccccc&quot;&gt;%c4Description%&lt;/font&gt;&lt;/div&gt;" id="hf4aPMj9JDdMH56rY4fk-29">
          <mxCell style="rounded=1;whiteSpace=wrap;html=1;labelBackgroundColor=none;fillColor=#1061B0;fontColor=#ffffff;align=center;arcSize=10;strokeColor=#0D5091;metaEdit=1;resizable=0;points=[[0.25,0,0],[0.5,0,0],[0.75,0,0],[1,0.25,0],[1,0.5,0],[1,0.75,0],[0.75,1,0],[0.5,1,0],[0.25,1,0],[0,0.75,0],[0,0.5,0],[0,0.25,0]];" parent="1" vertex="1">
            <mxGeometry x="1048" y="1862" width="240" height="120" as="geometry" />
          </mxCell>
        </object>
        <object placeholders="1" c4Name="Бэкенд" c4Type="Container: Server-side Application" c4Description="Выполняет сбор и анализ данных о производительности клиент-серверных веб-приложений. Содержит основную бизнес-логику" label="&lt;font style=&quot;font-size: 16px&quot;&gt;&lt;b&gt;%c4Name%&lt;/b&gt;&lt;/font&gt;&lt;div&gt;[%c4Type%]&lt;/div&gt;&lt;br&gt;&lt;div&gt;&lt;font style=&quot;font-size: 11px&quot;&gt;&lt;font color=&quot;#cccccc&quot;&gt;%c4Description%&lt;/font&gt;&lt;/div&gt;" id="hf4aPMj9JDdMH56rY4fk-30">
          <mxCell style="rounded=1;whiteSpace=wrap;html=1;labelBackgroundColor=none;fillColor=#1061B0;fontColor=#ffffff;align=center;arcSize=10;strokeColor=#0D5091;metaEdit=1;resizable=0;points=[[0.25,0,0],[0.5,0,0],[0.75,0,0],[1,0.25,0],[1,0.5,0],[1,0.75,0],[0.75,1,0],[0.5,1,0],[0.25,1,0],[0,0.75,0],[0,0.5,0],[0,0.25,0]];" parent="1" vertex="1">
            <mxGeometry x="1557" y="1572" width="240" height="120" as="geometry" />
          </mxCell>
        </object>
        <mxCell id="hf4aPMj9JDdMH56rY4fk-31" style="edgeStyle=orthogonalEdgeStyle;rounded=0;orthogonalLoop=1;jettySize=auto;html=1;entryX=0;entryY=0.5;entryDx=0;entryDy=0;entryPerimeter=0;curved=1;strokeColor=default;strokeWidth=2;dashed=1;" parent="1" target="hf4aPMj9JDdMH56rY4fk-29" edge="1">
          <mxGeometry relative="1" as="geometry">
            <mxPoint x="740" y="2067" as="sourcePoint" />
            <mxPoint x="1010.5" y="1837" as="targetPoint" />
          </mxGeometry>
        </mxCell>
        <mxCell id="hf4aPMj9JDdMH56rY4fk-32" value="Интегрирует библиотеку в стороннее&amp;nbsp;&lt;div&gt;веб-приложение&lt;/div&gt;" style="edgeLabel;html=1;align=center;verticalAlign=middle;resizable=0;points=[];" parent="hf4aPMj9JDdMH56rY4fk-31" vertex="1" connectable="0">
          <mxGeometry x="-0.2972" y="9" relative="1" as="geometry">
            <mxPoint x="1" as="offset" />
          </mxGeometry>
        </mxCell>
        <mxCell id="hf4aPMj9JDdMH56rY4fk-33" style="edgeStyle=orthogonalEdgeStyle;rounded=0;orthogonalLoop=1;jettySize=auto;html=1;entryX=0;entryY=0.5;entryDx=0;entryDy=0;entryPerimeter=0;curved=1;strokeColor=default;strokeWidth=2;dashed=1;exitX=0.98;exitY=0.633;exitDx=0;exitDy=0;exitPerimeter=0;" parent="1" source="hf4aPMj9JDdMH56rY4fk-26" target="hf4aPMj9JDdMH56rY4fk-21" edge="1">
          <mxGeometry relative="1" as="geometry">
            <mxPoint x="740" y="1688" as="sourcePoint" />
            <mxPoint x="1048" y="1591" as="targetPoint" />
          </mxGeometry>
        </mxCell>
        <mxCell id="hf4aPMj9JDdMH56rY4fk-34" value="Просматривает информацию о проекте.&amp;nbsp;&lt;div&gt;Делает заключение о состоянии проекта&lt;/div&gt;" style="edgeLabel;html=1;align=center;verticalAlign=middle;resizable=0;points=[];" parent="hf4aPMj9JDdMH56rY4fk-33" vertex="1" connectable="0">
          <mxGeometry x="-0.2972" y="9" relative="1" as="geometry">
            <mxPoint x="1" as="offset" />
          </mxGeometry>
        </mxCell>
        <mxCell id="hf4aPMj9JDdMH56rY4fk-37" style="edgeStyle=orthogonalEdgeStyle;rounded=0;orthogonalLoop=1;jettySize=auto;html=1;entryX=0;entryY=0.5;entryDx=0;entryDy=0;entryPerimeter=0;curved=1;strokeColor=default;strokeWidth=2;dashed=1;exitX=1;exitY=0.5;exitDx=0;exitDy=0;exitPerimeter=0;" parent="1" source="hf4aPMj9JDdMH56rY4fk-21" target="hf4aPMj9JDdMH56rY4fk-30" edge="1">
          <mxGeometry relative="1" as="geometry">
            <mxPoint x="1102.47" y="1687.76" as="sourcePoint" />
            <mxPoint x="1410.47" y="1631.76" as="targetPoint" />
          </mxGeometry>
        </mxCell>
        <mxCell id="hf4aPMj9JDdMH56rY4fk-38" value="Выполняет запрос [JSON/HTTPS]" style="edgeLabel;html=1;align=center;verticalAlign=middle;resizable=0;points=[];" parent="hf4aPMj9JDdMH56rY4fk-37" vertex="1" connectable="0">
          <mxGeometry x="-0.2972" y="9" relative="1" as="geometry">
            <mxPoint x="1" as="offset" />
          </mxGeometry>
        </mxCell>
        <mxCell id="hf4aPMj9JDdMH56rY4fk-39" style="edgeStyle=orthogonalEdgeStyle;rounded=0;orthogonalLoop=1;jettySize=auto;html=1;entryX=0.5;entryY=1;entryDx=0;entryDy=0;entryPerimeter=0;curved=1;strokeColor=default;strokeWidth=2;dashed=1;exitX=1;exitY=0.5;exitDx=0;exitDy=0;exitPerimeter=0;" parent="1" target="hf4aPMj9JDdMH56rY4fk-30" edge="1">
          <mxGeometry relative="1" as="geometry">
            <mxPoint x="1287.54" y="1967" as="sourcePoint" />
            <mxPoint x="1601.54" y="1965" as="targetPoint" />
          </mxGeometry>
        </mxCell>
        <mxCell id="hf4aPMj9JDdMH56rY4fk-40" value="Выполняет запрос [JSON/HTTPS]" style="edgeLabel;html=1;align=center;verticalAlign=middle;resizable=0;points=[];" parent="hf4aPMj9JDdMH56rY4fk-39" vertex="1" connectable="0">
          <mxGeometry x="-0.2972" y="9" relative="1" as="geometry">
            <mxPoint x="1" as="offset" />
          </mxGeometry>
        </mxCell>
        <mxCell id="hf4aPMj9JDdMH56rY4fk-42" style="edgeStyle=orthogonalEdgeStyle;rounded=0;orthogonalLoop=1;jettySize=auto;html=1;entryX=0;entryY=0.5;entryDx=0;entryDy=0;entryPerimeter=0;curved=1;strokeColor=default;strokeWidth=2;dashed=1;" parent="1" target="hf4aPMj9JDdMH56rY4fk-21" edge="1">
          <mxGeometry relative="1" as="geometry">
            <mxPoint x="740" y="1456" as="sourcePoint" />
            <mxPoint x="1048" y="1400" as="targetPoint" />
          </mxGeometry>
        </mxCell>
        <mxCell id="hf4aPMj9JDdMH56rY4fk-43" value="Просматривает информацию о проекте." style="edgeLabel;html=1;align=center;verticalAlign=middle;resizable=0;points=[];" parent="hf4aPMj9JDdMH56rY4fk-42" vertex="1" connectable="0">
          <mxGeometry x="-0.2972" y="9" relative="1" as="geometry">
            <mxPoint x="1" as="offset" />
          </mxGeometry>
        </mxCell>
        <mxCell id="hf4aPMj9JDdMH56rY4fk-45" style="edgeStyle=orthogonalEdgeStyle;rounded=0;orthogonalLoop=1;jettySize=auto;html=1;curved=1;strokeColor=default;strokeWidth=2;dashed=1;exitX=0;exitY=0.5;exitDx=0;exitDy=0;exitPerimeter=0;entryX=0.5;entryY=1;entryDx=0;entryDy=0;entryPerimeter=0;" parent="1" source="hf4aPMj9JDdMH56rY4fk-48" target="hf4aPMj9JDdMH56rY4fk-29" edge="1">
          <mxGeometry relative="1" as="geometry">
            <mxPoint x="1484" y="2131" as="sourcePoint" />
            <mxPoint x="1292" y="1970" as="targetPoint" />
          </mxGeometry>
        </mxCell>
        <mxCell id="hf4aPMj9JDdMH56rY4fk-46" value="Использует программный интерфейс библиотеки" style="edgeLabel;html=1;align=center;verticalAlign=middle;resizable=0;points=[];" parent="hf4aPMj9JDdMH56rY4fk-45" vertex="1" connectable="0">
          <mxGeometry x="-0.2972" y="9" relative="1" as="geometry">
            <mxPoint x="1" as="offset" />
          </mxGeometry>
        </mxCell>
        <object placeholders="1" c4Name="Стороннее веб-приложение" c4Type="Container: Web Application" c4Description="Стороннее клиентское веб-приложение" label="&lt;font style=&quot;font-size: 16px&quot;&gt;&lt;b&gt;%c4Name%&lt;/b&gt;&lt;/font&gt;&lt;div&gt;[%c4Type%]&lt;/div&gt;&lt;br&gt;&lt;div&gt;&lt;font style=&quot;font-size: 11px&quot;&gt;&lt;font color=&quot;#cccccc&quot;&gt;%c4Description%&lt;/font&gt;&lt;/div&gt;" id="hf4aPMj9JDdMH56rY4fk-48">
          <mxCell style="rounded=1;whiteSpace=wrap;html=1;labelBackgroundColor=none;fillColor=#8C8496;fontColor=#ffffff;align=center;arcSize=10;strokeColor=#736782;metaEdit=1;resizable=0;points=[[0.25,0,0],[0.5,0,0],[0.75,0,0],[1,0.25,0],[1,0.5,0],[1,0.75,0],[0.75,1,0],[0.5,1,0],[0.25,1,0],[0,0.75,0],[0,0.5,0],[0,0.25,0]];" parent="1" vertex="1">
            <mxGeometry x="1579" y="2075" width="240" height="120" as="geometry" />
          </mxCell>
        </object>
        <object placeholders="1" c4Name="Система для измерения и сбора данных производительности клиент-серверных веб-приложений" c4Type="SystemScopeBoundary" c4Application="Software System" label="&lt;font style=&quot;font-size: 16px&quot;&gt;&lt;b&gt;&lt;div style=&quot;text-align: left&quot;&gt;%c4Name%&lt;/div&gt;&lt;/b&gt;&lt;/font&gt;&lt;div style=&quot;text-align: left&quot;&gt;[%c4Application%]&lt;/div&gt;" id="hf4aPMj9JDdMH56rY4fk-49">
          <mxCell style="rounded=1;fontSize=11;whiteSpace=wrap;html=1;dashed=1;arcSize=20;fillColor=none;strokeColor=#666666;fontColor=#333333;labelBackgroundColor=none;align=left;verticalAlign=bottom;labelBorderColor=none;spacingTop=0;spacing=10;dashPattern=8 4;metaEdit=1;rotatable=0;perimeter=rectanglePerimeter;noLabel=0;labelPadding=0;allowArrows=0;connectable=0;expand=0;recursiveResize=0;editable=1;pointerEvents=0;absoluteArcSize=1;points=[[0.25,0,0],[0.5,0,0],[0.75,0,0],[1,0.25,0],[1,0.5,0],[1,0.75,0],[0.75,1,0],[0.5,1,0],[0.25,1,0],[0,0.75,0],[0,0.5,0],[0,0.25,0]];" parent="1" vertex="1">
            <mxGeometry x="1023" y="1497" width="800" height="556" as="geometry" />
          </mxCell>
        </object>
        <mxCell id="hf4aPMj9JDdMH56rY4fk-50" style="edgeStyle=orthogonalEdgeStyle;rounded=0;orthogonalLoop=1;jettySize=auto;html=1;curved=1;strokeColor=default;strokeWidth=2;dashed=1;exitX=0;exitY=0.5;exitDx=0;exitDy=0;exitPerimeter=0;entryX=0.998;entryY=0.603;entryDx=0;entryDy=0;entryPerimeter=0;" parent="1" source="hf4aPMj9JDdMH56rY4fk-52" target="hf4aPMj9JDdMH56rY4fk-4" edge="1">
          <mxGeometry relative="1" as="geometry">
            <mxPoint x="1185" y="570" as="sourcePoint" />
            <mxPoint x="869" y="421" as="targetPoint" />
          </mxGeometry>
        </mxCell>
        <mxCell id="hf4aPMj9JDdMH56rY4fk-51" value="Отправляет данные в систему" style="edgeLabel;html=1;align=center;verticalAlign=middle;resizable=0;points=[];" parent="hf4aPMj9JDdMH56rY4fk-50" vertex="1" connectable="0">
          <mxGeometry x="-0.2972" y="9" relative="1" as="geometry">
            <mxPoint x="1" as="offset" />
          </mxGeometry>
        </mxCell>
        <object placeholders="1" c4Name="Стороннее веб-приложение" c4Type="Container: Web Application" c4Description="Стороннее клиентское веб-приложение" label="&lt;font style=&quot;font-size: 16px&quot;&gt;&lt;b&gt;%c4Name%&lt;/b&gt;&lt;/font&gt;&lt;div&gt;[%c4Type%]&lt;/div&gt;&lt;br&gt;&lt;div&gt;&lt;font style=&quot;font-size: 11px&quot;&gt;&lt;font color=&quot;#cccccc&quot;&gt;%c4Description%&lt;/font&gt;&lt;/div&gt;" id="hf4aPMj9JDdMH56rY4fk-52">
          <mxCell style="rounded=1;whiteSpace=wrap;html=1;labelBackgroundColor=none;fillColor=#8C8496;fontColor=#ffffff;align=center;arcSize=10;strokeColor=#736782;metaEdit=1;resizable=0;points=[[0.25,0,0],[0.5,0,0],[0.75,0,0],[1,0.25,0],[1,0.5,0],[1,0.75,0],[0.75,1,0],[0.5,1,0],[0.25,1,0],[0,0.75,0],[0,0.5,0],[0,0.25,0]];" parent="1" vertex="1">
            <mxGeometry x="1052" y="340" width="240" height="120" as="geometry" />
          </mxCell>
        </object>
        <object placeholders="1" c4Name="Клиент" c4Type="Component: Angular Application" c4Description="Пользовтаельский интерфейс системы Lines Monitor" label="&lt;font style=&quot;font-size: 16px&quot;&gt;&lt;b&gt;%c4Name%&lt;/b&gt;&lt;/font&gt;&lt;div&gt;[%c4Type%]&lt;/div&gt;&lt;br&gt;&lt;div&gt;&lt;font style=&quot;font-size: 11px&quot;&gt;&lt;font color=&quot;#fff&quot;&gt;%c4Description%&lt;/font&gt;&lt;/div&gt;" id="hf4aPMj9JDdMH56rY4fk-67">
          <mxCell style="rounded=1;whiteSpace=wrap;html=1;labelBackgroundColor=none;fillColor=light-dark(#63bef2, #69aef2);fontColor=#ffffff;align=center;arcSize=10;strokeColor=#0D5091;metaEdit=1;resizable=0;points=[[0.25,0,0],[0.5,0,0],[0.75,0,0],[1,0.25,0],[1,0.5,0],[1,0.75,0],[0.75,1,0],[0.5,1,0],[0.25,1,0],[0,0.75,0],[0,0.5,0],[0,0.25,0]];" parent="1" vertex="1">
            <mxGeometry x="770" y="3081.5" width="240" height="120" as="geometry" />
          </mxCell>
        </object>
        <mxCell id="hf4aPMj9JDdMH56rY4fk-97" style="edgeStyle=orthogonalEdgeStyle;rounded=0;orthogonalLoop=1;jettySize=auto;html=1;exitX=1;exitY=0.5;exitDx=0;exitDy=0;exitPerimeter=0;" parent="1" source="hf4aPMj9JDdMH56rY4fk-69" target="hf4aPMj9JDdMH56rY4fk-96" edge="1">
          <mxGeometry relative="1" as="geometry" />
        </mxCell>
        <object placeholders="1" c4Name="Библиотека" c4Type="Container: Package" c4Description="Собирает данные о стороннем веб-приложении" label="&lt;font style=&quot;font-size: 16px&quot;&gt;&lt;b&gt;%c4Name%&lt;/b&gt;&lt;/font&gt;&lt;div&gt;[%c4Type%]&lt;/div&gt;&lt;br&gt;&lt;div&gt;&lt;font style=&quot;font-size: 11px&quot;&gt;&lt;font color=&quot;#fff&quot;&gt;%c4Description%&lt;/font&gt;&lt;/div&gt;" id="hf4aPMj9JDdMH56rY4fk-69">
          <mxCell style="rounded=1;whiteSpace=wrap;html=1;labelBackgroundColor=none;fillColor=light-dark(#63bef2, #12222a);fontColor=#ffffff;align=center;arcSize=10;strokeColor=#0D5091;metaEdit=1;resizable=0;points=[[0.25,0,0],[0.5,0,0],[0.75,0,0],[1,0.25,0],[1,0.5,0],[1,0.75,0],[0.75,1,0],[0.5,1,0],[0.25,1,0],[0,0.75,0],[0,0.5,0],[0,0.25,0]];" parent="1" vertex="1">
            <mxGeometry x="770" y="3398.5" width="240" height="120" as="geometry" />
          </mxCell>
        </object>
        <object placeholders="1" c4Name="Система для измерения и сбора данных производительности клиент-серверных веб-приложений" c4Type="SystemScopeBoundary" c4Application="Software System" label="&lt;font style=&quot;font-size: 16px&quot;&gt;&lt;b&gt;&lt;div style=&quot;text-align: left&quot;&gt;%c4Name%&lt;/div&gt;&lt;/b&gt;&lt;/font&gt;&lt;div style=&quot;text-align: left&quot;&gt;[%c4Application%]&lt;/div&gt;" id="hf4aPMj9JDdMH56rY4fk-84">
          <mxCell style="rounded=1;fontSize=11;whiteSpace=wrap;html=1;dashed=1;arcSize=20;fillColor=none;strokeColor=#666666;fontColor=#333333;labelBackgroundColor=none;align=left;verticalAlign=bottom;labelBorderColor=none;spacingTop=0;spacing=10;dashPattern=8 4;metaEdit=1;rotatable=0;perimeter=rectanglePerimeter;noLabel=0;labelPadding=0;allowArrows=0;connectable=0;expand=0;recursiveResize=0;editable=1;pointerEvents=0;absoluteArcSize=1;points=[[0.25,0,0],[0.5,0,0],[0.75,0,0],[1,0.25,0],[1,0.5,0],[1,0.75,0],[0.75,1,0],[0.5,1,0],[0.25,1,0],[0,0.75,0],[0,0.5,0],[0,0.25,0]];" parent="1" vertex="1">
            <mxGeometry x="751" y="3015" width="1529" height="657" as="geometry" />
          </mxCell>
        </object>
        <mxCell id="hf4aPMj9JDdMH56rY4fk-110" style="edgeStyle=orthogonalEdgeStyle;rounded=0;orthogonalLoop=1;jettySize=auto;html=1;" parent="1" source="hf4aPMj9JDdMH56rY4fk-95" target="hf4aPMj9JDdMH56rY4fk-108" edge="1">
          <mxGeometry relative="1" as="geometry" />
        </mxCell>
        <object placeholders="1" c4Name="Очередь" c4Type="Component" c4Technology="Apache Kafka" c4Description="Очередь запросов содержащая несколько топиков для коммуникации между сервисами" label="&lt;font style=&quot;font-size: 16px&quot;&gt;&lt;b&gt;%c4Name%&lt;/b&gt;&lt;/font&gt;&lt;div&gt;[%c4Type%:&amp;nbsp;%c4Technology%]&lt;/div&gt;&lt;br&gt;&lt;div&gt;&lt;font style=&quot;font-size: 11px&quot;&gt;&lt;font color=&quot;#E6E6E6&quot;&gt;%c4Description%&lt;/font&gt;&lt;/div&gt;" id="hf4aPMj9JDdMH56rY4fk-95">
          <mxCell style="shape=cylinder3;size=15;direction=south;whiteSpace=wrap;html=1;boundedLbl=1;rounded=0;labelBackgroundColor=none;fillColor=light-dark(#63bef2, #1d8ab9);fontSize=12;fontColor=#ffffff;align=center;strokeColor=#0E7DAD;metaEdit=1;points=[[0.5,0,0],[1,0.25,0],[1,0.5,0],[1,0.75,0],[0.5,1,0],[0,0.75,0],[0,0.5,0],[0,0.25,0]];resizable=0;" parent="1" vertex="1">
            <mxGeometry x="1672" y="3241" width="240" height="120" as="geometry" />
          </mxCell>
        </object>
        <object placeholders="1" c4Name="Балансировщик" c4Type="Component" c4Technology="Nginx" c4Description="Распределяет нагрузку на систему" label="&lt;font style=&quot;font-size: 16px&quot;&gt;&lt;b&gt;%c4Name%&lt;/b&gt;&lt;/font&gt;&lt;div&gt;[%c4Type%: %c4Technology%]&lt;/div&gt;&lt;br&gt;&lt;div&gt;&lt;font style=&quot;font-size: 11px&quot;&gt;%c4Description%&lt;/font&gt;&lt;/div&gt;" id="hf4aPMj9JDdMH56rY4fk-96">
          <mxCell style="rounded=1;whiteSpace=wrap;html=1;labelBackgroundColor=none;fillColor=#63BEF2;fontColor=#ffffff;align=center;arcSize=6;strokeColor=#2086C9;metaEdit=1;resizable=0;points=[[0.25,0,0],[0.5,0,0],[0.75,0,0],[1,0.25,0],[1,0.5,0],[1,0.75,0],[0.75,1,0],[0.5,1,0],[0.25,1,0],[0,0.75,0],[0,0.5,0],[0,0.25,0]];" parent="1" vertex="1">
            <mxGeometry x="1046" y="3240" width="240" height="120" as="geometry" />
          </mxCell>
        </object>
        <mxCell id="hf4aPMj9JDdMH56rY4fk-98" style="edgeStyle=orthogonalEdgeStyle;rounded=0;orthogonalLoop=1;jettySize=auto;html=1;entryX=0.5;entryY=0;entryDx=0;entryDy=0;entryPerimeter=0;" parent="1" source="hf4aPMj9JDdMH56rY4fk-67" target="hf4aPMj9JDdMH56rY4fk-96" edge="1">
          <mxGeometry relative="1" as="geometry" />
        </mxCell>
        <mxCell id="hf4aPMj9JDdMH56rY4fk-102" style="edgeStyle=orthogonalEdgeStyle;rounded=0;orthogonalLoop=1;jettySize=auto;html=1;" parent="1" source="hf4aPMj9JDdMH56rY4fk-99" target="hf4aPMj9JDdMH56rY4fk-95" edge="1">
          <mxGeometry relative="1" as="geometry" />
        </mxCell>
        <mxCell id="hf4aPMj9JDdMH56rY4fk-104" style="edgeStyle=orthogonalEdgeStyle;rounded=0;orthogonalLoop=1;jettySize=auto;html=1;" parent="1" source="hf4aPMj9JDdMH56rY4fk-99" target="hf4aPMj9JDdMH56rY4fk-103" edge="1">
          <mxGeometry relative="1" as="geometry" />
        </mxCell>
        <mxCell id="hf4aPMj9JDdMH56rY4fk-114" value="Чтение данных&lt;div&gt;&lt;br&gt;&lt;/div&gt;" style="edgeLabel;html=1;align=center;verticalAlign=middle;resizable=0;points=[];" parent="hf4aPMj9JDdMH56rY4fk-104" vertex="1" connectable="0">
          <mxGeometry x="0.3313" y="2" relative="1" as="geometry">
            <mxPoint as="offset" />
          </mxGeometry>
        </mxCell>
        <object placeholders="1" c4Name="Rest API" c4Type="Component" c4Technology="Spring Application" c4Description="Является точкой входа в систему для выполнения операций по созданию пользователей, проектов и отправки измерений" label="&lt;font style=&quot;font-size: 16px&quot;&gt;&lt;b&gt;%c4Name%&lt;/b&gt;&lt;/font&gt;&lt;div&gt;[%c4Type%: %c4Technology%]&lt;/div&gt;&lt;br&gt;&lt;div&gt;&lt;font style=&quot;font-size: 11px&quot;&gt;%c4Description%&lt;/font&gt;&lt;/div&gt;" id="hf4aPMj9JDdMH56rY4fk-99">
          <mxCell style="rounded=1;whiteSpace=wrap;html=1;labelBackgroundColor=none;fillColor=#63BEF2;fontColor=#ffffff;align=center;arcSize=6;strokeColor=#2086C9;metaEdit=1;resizable=0;points=[[0.25,0,0],[0.5,0,0],[0.75,0,0],[1,0.25,0],[1,0.5,0],[1,0.75,0],[0.75,1,0],[0.5,1,0],[0.25,1,0],[0,0.75,0],[0,0.5,0],[0,0.25,0]];" parent="1" vertex="1">
            <mxGeometry x="1348" y="3241" width="240" height="120" as="geometry" />
          </mxCell>
        </object>
        <mxCell id="hf4aPMj9JDdMH56rY4fk-100" style="edgeStyle=orthogonalEdgeStyle;rounded=0;orthogonalLoop=1;jettySize=auto;html=1;entryX=0;entryY=0.5;entryDx=0;entryDy=0;entryPerimeter=0;" parent="1" source="hf4aPMj9JDdMH56rY4fk-96" target="hf4aPMj9JDdMH56rY4fk-99" edge="1">
          <mxGeometry relative="1" as="geometry" />
        </mxCell>
        <mxCell id="hf4aPMj9JDdMH56rY4fk-101" style="edgeStyle=orthogonalEdgeStyle;rounded=0;orthogonalLoop=1;jettySize=auto;html=1;entryX=1;entryY=0.5;entryDx=0;entryDy=0;entryPerimeter=0;" parent="1" source="hf4aPMj9JDdMH56rY4fk-99" target="hf4aPMj9JDdMH56rY4fk-96" edge="1">
          <mxGeometry relative="1" as="geometry" />
        </mxCell>
        <object placeholders="1" c4Name="База данных" c4Type="Container" c4Technology="Mongo DB" c4Description="Хранит информацию об измерениях" label="&lt;font style=&quot;font-size: 16px&quot;&gt;&lt;b&gt;%c4Name%&lt;/b&gt;&lt;/font&gt;&lt;div&gt;[%c4Type%:&amp;nbsp;%c4Technology%]&lt;/div&gt;&lt;br&gt;&lt;div&gt;&lt;font style=&quot;font-size: 11px&quot;&gt;&lt;font color=&quot;#E6E6E6&quot;&gt;%c4Description%&lt;/font&gt;&lt;/div&gt;" id="hf4aPMj9JDdMH56rY4fk-103">
          <mxCell style="shape=cylinder3;size=15;whiteSpace=wrap;html=1;boundedLbl=1;rounded=0;labelBackgroundColor=none;fillColor=light-dark(#63bef2, #1d8ab9);fontSize=12;fontColor=#ffffff;align=center;strokeColor=#0E7DAD;metaEdit=1;points=[[0.5,0,0],[1,0.25,0],[1,0.5,0],[1,0.75,0],[0.5,1,0],[0,0.75,0],[0,0.5,0],[0,0.25,0]];resizable=0;" parent="1" vertex="1">
            <mxGeometry x="1349" y="3459" width="240" height="120" as="geometry" />
          </mxCell>
        </object>
        <object placeholders="1" c4Name="База данных" c4Type="Container" c4Technology="PostgreSQL" c4Description="Хранит информацию об измерениях" label="&lt;font style=&quot;font-size: 16px&quot;&gt;&lt;b&gt;%c4Name%&lt;/b&gt;&lt;/font&gt;&lt;div&gt;[%c4Type%:&amp;nbsp;%c4Technology%]&lt;/div&gt;&lt;br&gt;&lt;div&gt;&lt;font style=&quot;font-size: 11px&quot;&gt;&lt;font color=&quot;#E6E6E6&quot;&gt;%c4Description%&lt;/font&gt;&lt;/div&gt;" id="hf4aPMj9JDdMH56rY4fk-105">
          <mxCell style="shape=cylinder3;size=15;whiteSpace=wrap;html=1;boundedLbl=1;rounded=0;labelBackgroundColor=none;fillColor=light-dark(#63bef2, #1d8ab9);fontSize=12;fontColor=#ffffff;align=center;strokeColor=#0E7DAD;metaEdit=1;points=[[0.5,0,0],[1,0.25,0],[1,0.5,0],[1,0.75,0],[0.5,1,0],[0,0.75,0],[0,0.5,0],[0,0.25,0]];resizable=0;" parent="1" vertex="1">
            <mxGeometry x="1348" y="3030" width="240" height="120" as="geometry" />
          </mxCell>
        </object>
        <mxCell id="hf4aPMj9JDdMH56rY4fk-106" style="edgeStyle=orthogonalEdgeStyle;rounded=0;orthogonalLoop=1;jettySize=auto;html=1;entryX=0.5;entryY=1;entryDx=0;entryDy=0;entryPerimeter=0;" parent="1" source="hf4aPMj9JDdMH56rY4fk-99" target="hf4aPMj9JDdMH56rY4fk-105" edge="1">
          <mxGeometry relative="1" as="geometry" />
        </mxCell>
        <mxCell id="hf4aPMj9JDdMH56rY4fk-113" value="Чтение и запись данных&lt;div&gt;&lt;br&gt;&lt;/div&gt;" style="edgeLabel;html=1;align=center;verticalAlign=middle;resizable=0;points=[];" parent="hf4aPMj9JDdMH56rY4fk-106" vertex="1" connectable="0">
          <mxGeometry x="-0.202" y="-2" relative="1" as="geometry">
            <mxPoint y="1" as="offset" />
          </mxGeometry>
        </mxCell>
        <object placeholders="1" c4Name="Сервис генерации отчетов" c4Type="Component" c4Technology="Spring Application" c4Description="Позволяет генерировать отчеты о производительности веб-приложения" label="&lt;font style=&quot;font-size: 16px&quot;&gt;&lt;b&gt;%c4Name%&lt;/b&gt;&lt;/font&gt;&lt;div&gt;[%c4Type%: %c4Technology%]&lt;/div&gt;&lt;br&gt;&lt;div&gt;&lt;font style=&quot;font-size: 11px&quot;&gt;%c4Description%&lt;/font&gt;&lt;/div&gt;" id="hf4aPMj9JDdMH56rY4fk-108">
          <mxCell style="rounded=1;whiteSpace=wrap;html=1;labelBackgroundColor=none;fillColor=#63BEF2;fontColor=#ffffff;align=center;arcSize=6;strokeColor=#2086C9;metaEdit=1;resizable=0;points=[[0.25,0,0],[0.5,0,0],[0.75,0,0],[1,0.25,0],[1,0.5,0],[1,0.75,0],[0.75,1,0],[0.5,1,0],[0.25,1,0],[0,0.75,0],[0,0.5,0],[0,0.25,0]];" parent="1" vertex="1">
            <mxGeometry x="2024" y="3241" width="240" height="120" as="geometry" />
          </mxCell>
        </object>
        <object placeholders="1" c4Name="Сервис упаковки измерений" c4Type="Component" c4Technology="Spring Application" c4Description="Обрабатывет измерения и приводит их необходимому формату для хранения" label="&lt;font style=&quot;font-size: 16px&quot;&gt;&lt;b&gt;%c4Name%&lt;/b&gt;&lt;/font&gt;&lt;div&gt;[%c4Type%: %c4Technology%]&lt;/div&gt;&lt;br&gt;&lt;div&gt;&lt;font style=&quot;font-size: 11px&quot;&gt;%c4Description%&lt;/font&gt;&lt;/div&gt;" id="hf4aPMj9JDdMH56rY4fk-109">
          <mxCell style="rounded=1;whiteSpace=wrap;html=1;labelBackgroundColor=none;fillColor=#63BEF2;fontColor=#ffffff;align=center;arcSize=6;strokeColor=#2086C9;metaEdit=1;resizable=0;points=[[0.25,0,0],[0.5,0,0],[0.75,0,0],[1,0.25,0],[1,0.5,0],[1,0.75,0],[0.75,1,0],[0.5,1,0],[0.25,1,0],[0,0.75,0],[0,0.5,0],[0,0.25,0]];" parent="1" vertex="1">
            <mxGeometry x="2029" y="3455" width="240" height="120" as="geometry" />
          </mxCell>
        </object>
        <mxCell id="hf4aPMj9JDdMH56rY4fk-111" style="edgeStyle=orthogonalEdgeStyle;rounded=0;orthogonalLoop=1;jettySize=auto;html=1;entryX=0;entryY=0.5;entryDx=0;entryDy=0;entryPerimeter=0;" parent="1" edge="1">
          <mxGeometry relative="1" as="geometry">
            <mxPoint x="1911" y="3301" as="sourcePoint" />
            <mxPoint x="2028" y="3100" as="targetPoint" />
            <Array as="points">
              <mxPoint x="1950" y="3301" />
              <mxPoint x="1950" y="3100" />
            </Array>
          </mxGeometry>
        </mxCell>
        <mxCell id="hf4aPMj9JDdMH56rY4fk-112" style="edgeStyle=orthogonalEdgeStyle;rounded=0;orthogonalLoop=1;jettySize=auto;html=1;entryX=0;entryY=0.5;entryDx=0;entryDy=0;entryPerimeter=0;" parent="1" source="hf4aPMj9JDdMH56rY4fk-95" target="hf4aPMj9JDdMH56rY4fk-109" edge="1">
          <mxGeometry relative="1" as="geometry">
            <Array as="points">
              <mxPoint x="1950" y="3301" />
              <mxPoint x="1950" y="3515" />
            </Array>
          </mxGeometry>
        </mxCell>
        <mxCell id="hf4aPMj9JDdMH56rY4fk-116" style="edgeStyle=orthogonalEdgeStyle;rounded=0;orthogonalLoop=1;jettySize=auto;html=1;entryX=0.5;entryY=1;entryDx=0;entryDy=0;entryPerimeter=0;" parent="1" source="hf4aPMj9JDdMH56rY4fk-109" target="hf4aPMj9JDdMH56rY4fk-103" edge="1">
          <mxGeometry relative="1" as="geometry">
            <Array as="points">
              <mxPoint x="2149" y="3607" />
              <mxPoint x="1469" y="3607" />
            </Array>
          </mxGeometry>
        </mxCell>
        <mxCell id="hf4aPMj9JDdMH56rY4fk-117" value="Чтение и запись данных&lt;div&gt;&lt;br&gt;&lt;/div&gt;" style="edgeLabel;html=1;align=center;verticalAlign=middle;resizable=0;points=[];" parent="hf4aPMj9JDdMH56rY4fk-116" vertex="1" connectable="0">
          <mxGeometry x="0.5491" y="2" relative="1" as="geometry">
            <mxPoint x="173" as="offset" />
          </mxGeometry>
        </mxCell>
      </root>
    </mxGraphModel>
  </diagram>
  <diagram id="Fy-5ZZLHQvzoIEuAO63d" name="Other">
    <mxGraphModel dx="1115" dy="736" grid="1" gridSize="10" guides="1" tooltips="1" connect="1" arrows="1" fold="1" page="1" pageScale="1" pageWidth="827" pageHeight="1169" math="0" shadow="0">
      <root>
        <mxCell id="0" />
        <mxCell id="1" parent="0" />
        <mxCell id="4B4-suLJelRxn-djwQE1-7" style="edgeStyle=orthogonalEdgeStyle;rounded=0;orthogonalLoop=1;jettySize=auto;html=1;exitX=1;exitY=0.25;exitDx=0;exitDy=0;entryX=0;entryY=0.25;entryDx=0;entryDy=0;" edge="1" parent="1" source="4B4-suLJelRxn-djwQE1-1" target="4B4-suLJelRxn-djwQE1-3">
          <mxGeometry relative="1" as="geometry" />
        </mxCell>
        <mxCell id="4B4-suLJelRxn-djwQE1-1" value="Клиент" style="rounded=0;whiteSpace=wrap;html=1;" vertex="1" parent="1">
          <mxGeometry x="140" y="280" width="120" height="60" as="geometry" />
        </mxCell>
        <mxCell id="4B4-suLJelRxn-djwQE1-10" style="edgeStyle=orthogonalEdgeStyle;rounded=0;orthogonalLoop=1;jettySize=auto;html=1;exitX=0;exitY=0.75;exitDx=0;exitDy=0;entryX=1;entryY=0.75;entryDx=0;entryDy=0;" edge="1" parent="1" source="4B4-suLJelRxn-djwQE1-2" target="4B4-suLJelRxn-djwQE1-3">
          <mxGeometry relative="1" as="geometry" />
        </mxCell>
        <mxCell id="4B4-suLJelRxn-djwQE1-2" value="Сервер" style="rounded=0;whiteSpace=wrap;html=1;" vertex="1" parent="1">
          <mxGeometry x="630" y="280" width="120" height="60" as="geometry" />
        </mxCell>
        <mxCell id="4B4-suLJelRxn-djwQE1-8" style="edgeStyle=orthogonalEdgeStyle;rounded=0;orthogonalLoop=1;jettySize=auto;html=1;exitX=1;exitY=0.25;exitDx=0;exitDy=0;entryX=0;entryY=0.25;entryDx=0;entryDy=0;" edge="1" parent="1" source="4B4-suLJelRxn-djwQE1-3" target="4B4-suLJelRxn-djwQE1-2">
          <mxGeometry relative="1" as="geometry" />
        </mxCell>
        <mxCell id="4B4-suLJelRxn-djwQE1-9" style="edgeStyle=orthogonalEdgeStyle;rounded=0;orthogonalLoop=1;jettySize=auto;html=1;exitX=0;exitY=0.75;exitDx=0;exitDy=0;entryX=1;entryY=0.75;entryDx=0;entryDy=0;" edge="1" parent="1" source="4B4-suLJelRxn-djwQE1-3" target="4B4-suLJelRxn-djwQE1-1">
          <mxGeometry relative="1" as="geometry" />
        </mxCell>
        <mxCell id="4B4-suLJelRxn-djwQE1-3" value="Сеть" style="rounded=0;whiteSpace=wrap;html=1;" vertex="1" parent="1">
          <mxGeometry x="350" y="280" width="210" height="60" as="geometry" />
        </mxCell>
        <mxCell id="4B4-suLJelRxn-djwQE1-11" style="edgeStyle=orthogonalEdgeStyle;rounded=0;orthogonalLoop=1;jettySize=auto;html=1;exitX=0.25;exitY=1;exitDx=0;exitDy=0;entryX=0.75;entryY=1;entryDx=0;entryDy=0;" edge="1" parent="1" source="4B4-suLJelRxn-djwQE1-2" target="4B4-suLJelRxn-djwQE1-2">
          <mxGeometry relative="1" as="geometry" />
        </mxCell>
        <mxCell id="4B4-suLJelRxn-djwQE1-12" value="Генерация ответа" style="text;whiteSpace=wrap;align=center;" vertex="1" parent="1">
          <mxGeometry x="660" y="370" width="60" height="40" as="geometry" />
        </mxCell>
        <mxCell id="4B4-suLJelRxn-djwQE1-13" value="Запрос получен сервером" style="text;whiteSpace=wrap;align=center;" vertex="1" parent="1">
          <mxGeometry x="540" y="200" width="80" height="40" as="geometry" />
        </mxCell>
        <mxCell id="4B4-suLJelRxn-djwQE1-14" value="Ответ на зпрос" style="text;whiteSpace=wrap;align=center;" vertex="1" parent="1">
          <mxGeometry x="535" y="360" width="90" height="40" as="geometry" />
        </mxCell>
        <mxCell id="4B4-suLJelRxn-djwQE1-15" value="Передача&#xa;ответа&#xa;на запрос" style="text;whiteSpace=wrap;align=center;" vertex="1" parent="1">
          <mxGeometry x="410" y="360" width="90" height="40" as="geometry" />
        </mxCell>
        <mxCell id="4B4-suLJelRxn-djwQE1-16" value="Ответ получен" style="text;whiteSpace=wrap;align=center;" vertex="1" parent="1">
          <mxGeometry x="250" y="360" width="90" height="40" as="geometry" />
        </mxCell>
        <mxCell id="4B4-suLJelRxn-djwQE1-17" value="Запрос передается по сети" style="text;whiteSpace=wrap;align=center;" vertex="1" parent="1">
          <mxGeometry x="405" y="200" width="110" height="40" as="geometry" />
        </mxCell>
        <mxCell id="4B4-suLJelRxn-djwQE1-18" value="Запрос веб-страницы" style="text;whiteSpace=wrap;align=center;" vertex="1" parent="1">
          <mxGeometry x="250" y="200" width="110" height="40" as="geometry" />
        </mxCell>
      </root>
    </mxGraphModel>
  </diagram>
</mxfile>
